<?xml version="1.0" standalone="no"?>
<!DOCTYPE svg PUBLIC "-//W3C//DTD SVG 20010904//EN"
 "http://www.w3.org/TR/2001/REC-SVG-20010904/DTD/svg10.dtd">
<svg version="1.0" xmlns="http://www.w3.org/2000/svg"
 width="260.000000pt" height="260.000000pt" viewBox="0 0 260.000000 260.000000"
 preserveAspectRatio="xMidYMid meet">
<metadata>
Created by potrace 1.11, written by Peter Selinger 2001-2013
</metadata>
<g transform="translate(0.000000,260.000000) scale(0.100000,-0.100000)"
fill="#000000" stroke="none">
<path d="M1874 2285 c-66 -33 -195 -166 -307 -317 -96 -129 -235 -342 -283
-435 l-32 -61 -53 91 c-79 140 -249 393 -320 478 -86 102 -173 177 -216 185
-27 5 -41 1 -70 -19 -206 -146 -512 -1049 -513 -1513 0 -173 32 -239 143 -294
147 -71 375 -104 667 -97 333 9 539 58 657 159 21 18 29 23 19 10 l-19 -22
199 0 c284 0 472 29 614 92 125 56 160 118 160 281 0 368 -236 1099 -444 1373
-85 113 -122 129 -202 89z m-1038 -394 c114 -129 201 -230 193 -226 -8 5 -54
42 -102 83 -48 41 -91 71 -94 68 -4 -4 6 -74 21 -157 16 -83 26 -152 24 -155
-3 -2 -43 55 -89 128 -47 73 -89 132 -94 131 -6 -1 -20 -60 -31 -130 -12 -70
-22 -124 -23 -119 -12 83 -35 204 -42 216 -10 19 -8 24 -64 -162 l-44 -143 0
118 c-1 64 -4 117 -8 117 -4 0 -38 -30 -76 -67 l-68 -68 24 55 c109 248 251
550 258 548 4 -2 101 -108 215 -237z m479 -521 c14 -27 23 -50 20 -50 -2 0
-16 23 -30 50 -14 28 -23 50 -20 50 2 0 16 -22 30 -50z m104 -215 c0 -5 -8 6
-19 25 -11 19 -19 40 -19 45 0 6 8 -6 19 -25 11 -19 19 -39 19 -45z m41 -90
c0 -5 -5 -3 -10 5 -5 8 -10 20 -10 25 0 6 5 3 10 -5 5 -8 10 -19 10 -25z m50
-120 c0 -5 -5 -3 -10 5 -5 8 -10 20 -10 25 0 6 5 3 10 -5 5 -8 10 -19 10 -25z
m77 -257 c-3 -8 -6 -5 -6 6 -1 11 2 17 5 13 3 -3 4 -12 1 -19z m10 -65 c-3
-10 -5 -4 -5 12 0 17 2 24 5 18 2 -7 2 -21 0 -30z m-152 -63 c-37 -29 -40 -30
-154 -31 -64 0 -316 -6 -561 -13 l-445 -13 -38 36 -38 36 323 5 c178 3 464 6
637 8 l314 2 -38 -30z"/>
</g>
</svg>
