<?xml version="1.0" standalone="no"?>
<!DOCTYPE svg PUBLIC "-//W3C//DTD SVG 20010904//EN"
 "http://www.w3.org/TR/2001/REC-SVG-20010904/DTD/svg10.dtd">
<svg version="1.0" xmlns="http://www.w3.org/2000/svg"
 width="260.000000pt" height="260.000000pt" viewBox="0 0 260.000000 260.000000"
 preserveAspectRatio="xMidYMid meet">
<metadata>
Created by potrace 1.11, written by Peter Selinger 2001-2013
</metadata>
<g transform="translate(0.000000,260.000000) scale(0.100000,-0.100000)"
fill="#000000" stroke="none">
<path d="M1551 2517 c-95 -48 -70 -160 39 -174 52 -7 82 1 113 33 80 80 -45
196 -152 141z"/>
<path d="M1084 2430 c-31 -12 -64 -59 -64 -90 0 -45 62 -90 125 -90 65 0 104
31 112 88 5 34 1 41 -31 70 -29 26 -45 32 -79 31 -23 0 -52 -4 -63 -9z"/>
<path d="M2015 2428 c-98 -56 -57 -178 60 -178 92 0 152 76 109 138 -32 46
-121 67 -169 40z"/>
<path d="M1455 2249 c-71 -17 -328 -100 -390 -126 -59 -24 -148 -76 -173 -100
-7 -7 -17 -13 -21 -13 -4 0 -48 -39 -99 -87 -97 -94 -206 -237 -198 -260 3 -8
2 -11 -4 -8 -12 7 -85 -150 -129 -281 -66 -195 -78 -320 -42 -464 66 -274 61
-299 -99 -455 -78 -76 -132 -161 -153 -245 -17 -67 -8 -92 39 -115 115 -54
260 24 448 241 56 66 118 129 136 142 47 31 75 27 345 -60 184 -59 321 -60
430 -3 116 60 291 216 362 322 81 119 103 234 99 500 -2 94 1 202 6 240 15
113 71 214 177 322 59 61 97 86 146 94 61 11 180 38 184 42 39 40 -378 212
-709 292 -116 28 -289 39 -355 22z m5 -43 c0 -2 -8 -10 -17 -17 -16 -13 -17
-12 -4 4 13 16 21 21 21 13z m-326 -164 c2 -4 -4 -8 -14 -8 -10 0 -16 4 -14 8
3 4 9 8 14 8 5 0 11 -4 14 -8z m670 -8 c3 -8 2 -12 -4 -9 -6 3 -10 10 -10 16
0 14 7 11 14 -7z m451 -34 c-3 -5 -12 -10 -18 -10 -7 0 -6 4 3 10 19 12 23 12
15 0z m69 -6 c3 -8 2 -12 -4 -9 -6 3 -10 10 -10 16 0 14 7 11 14 -7z m-1189
-74 c3 -6 -1 -7 -9 -4 -18 7 -21 14 -7 14 6 0 13 -4 16 -10z m309 -886 c3 -8
2 -12 -4 -9 -6 3 -10 10 -10 16 0 14 7 11 14 -7z m-600 -440 c3 -8 2 -12 -4
-9 -6 3 -10 10 -10 16 0 14 7 11 14 -7z m771 -33 c-9 -8 -36 -10 -30 -2 2 4
11 8 20 8 8 0 13 -3 10 -6z m-330 -89 c-3 -3 -11 0 -18 7 -9 10 -8 11 6 5 10
-3 15 -9 12 -12z m90 8 c3 -6 -1 -7 -9 -4 -18 7 -21 14 -7 14 6 0 13 -4 16
-10z m-44 -37 c13 -16 12 -17 -3 -4 -17 13 -22 21 -14 21 2 0 10 -8 17 -17z
m-681 -37 c0 -2 -7 -7 -16 -10 -8 -3 -12 -2 -9 4 6 10 25 14 25 6z m-362 -131
c-3 -3 -9 2 -12 12 -6 14 -5 15 5 6 7 -7 10 -15 7 -18z m-34 -33 c2 -4 -4 -8
-14 -8 -10 0 -16 4 -14 8 3 4 9 8 14 8 5 0 11 -4 14 -8z"/>
<path d="M633 2200 c-37 -22 -53 -48 -53 -87 0 -36 27 -76 47 -69 8 3 12 2 9
-3 -8 -12 18 -21 59 -21 41 0 67 9 59 21 -3 5 1 6 9 3 18 -6 57 41 57 68 0 52
-66 108 -128 108 -15 0 -41 -9 -59 -20z"/>
<path d="M325 1885 c-40 -21 -55 -43 -55 -79 1 -83 113 -126 191 -73 85 57 48
152 -64 164 -27 2 -53 -2 -72 -12z"/>
<path d="M1803 549 c-19 -6 -33 -16 -33 -25 0 -10 6 -14 15 -10 13 5 15 -16
15 -153 0 -132 -3 -160 -15 -165 -33 -12 -12 -26 40 -26 52 0 73 14 40 26 -11
5 -15 24 -15 80 0 41 4 74 9 74 5 0 26 -41 47 -91 l37 -90 35 3 c39 3 54 23
24 32 -10 4 -33 37 -51 74 l-33 69 26 28 c21 23 26 38 26 80 0 71 -30 105 -92
104 -24 0 -58 -5 -75 -10z m108 -45 c32 -38 2 -124 -43 -124 -16 0 -18 9 -18
70 0 67 1 70 24 70 13 0 30 -7 37 -16z"/>
<path d="M2020 540 c0 -5 6 -13 14 -17 7 -4 32 -83 56 -175 23 -91 46 -172 50
-178 5 -9 13 -9 27 -1 18 9 44 88 68 201 16 75 39 146 51 153 28 16 13 27 -36
27 -49 0 -64 -11 -36 -27 12 -7 9 -29 -17 -131 -16 -67 -32 -120 -34 -118 -2
2 -19 57 -37 122 -27 97 -30 121 -20 127 28 16 13 27 -36 27 -27 0 -50 -4 -50
-10z"/>
<path d="M2310 541 c0 -6 9 -15 20 -21 19 -10 20 -21 20 -160 0 -139 -1 -150
-20 -160 -43 -23 -19 -31 83 -28 l102 3 3 34 c4 43 -14 64 -24 27 -6 -25 -10
-27 -53 -24 l-46 3 -3 74 -3 74 45 -6 c35 -5 45 -3 50 9 10 26 -3 34 -50 34
l-44 0 0 55 0 55 34 0 c24 0 38 -7 49 -22 18 -28 26 -22 29 23 l3 34 -97 3
c-61 2 -98 -1 -98 -7z"/>
</g>
</svg>
